<?xml version="1.0" encoding="utf-8"?>
<!-- Generator: Adobe Illustrator 25.4.1, SVG Export Plug-In . SVG Version: 6.00 Build 0)  -->
<svg version="1.1" id="Layer_1" xmlns="http://www.w3.org/2000/svg" xmlns:xlink="http://www.w3.org/1999/xlink" x="0px" y="0px"
	 viewBox="0 0 2048.1 2048.1" style="enable-background:new 0 0 2048.1 2048.1;" xml:space="preserve">
<style type="text/css">
	.st0{display:none;fill:none;stroke:#76C4AC;stroke-width:3.9403;stroke-miterlimit:10;}
	.st1{fill:#76C4AC;stroke:#76C4AC;stroke-width:3.9403;stroke-miterlimit:10;}
</style>
<g>
	<g>
		<path class="st0" d="M1168.5,295.7c48.5,3.5,97.4,9.6,145.3,18.1c54,9.5,104.4,28.3,149.8,55.9c130.8,79.3,214.5,228,218.5,388
			c5.5,223.3-190.5,368.2-198.9,374.2c-39.5,28.7-80.8,45.8-82.5,46.5c-30.7,12.7-63.1,21.4-96.1,25.9c-1.9,0.3-4,0.4-6.1,0.4
			l-111.3,0h0c-25,0-45.3-20.3-45.3-45.3c0-12.1,4.7-23.5,13.2-32c8.6-8.6,19.9-13.3,32-13.3l108.1,0c24.4-3.5,48.2-10.1,70.9-19.4
			c0.3-0.1,33.6-14.1,63.8-36c5.1-3.7,51.5-38.2,94.8-99.4c46-65,68.4-132.1,66.8-199.3c-3.2-129.5-70.2-249.4-174.9-312.8
			c-35.8-21.7-75.7-36.5-118.6-44.1c-44.9-7.9-90.6-13.6-136-16.9c-43.7-3.2-88-4.2-131.8-3l-1.2,0L264,384.9
			c-12.5,0-23.8-5-32-13.2l-39.5,16.4c-2.3,19.9-6.9,67.6-8.7,135c91.8,0,459.2,0.2,639.1,0.3l4.4,0c46,0,153.8,0.1,299.7-0.3
			c31.6-0.1,63.1-0.2,94.7-0.3c2.4,0,4.7,0.1,7.2,0.5c35.1,5.4,122.8,26.4,180.3,106.1c12.6,17.4,46,63.8,46.1,132.7
			c0,33.1-8.1,83.2-46.8,133.8c-62,81-156.9,91.1-184.4,92.3c-0.8,0-1.3,0-1.9,0l-94.2,0.4c-0.9,0-1.7,0-2.5,0l-176.5-7.3
			l539.8,699.5c184.7-205.7,277.8-444.6,324.5-642.9c74.5-316.3,48.9-594.1,42.5-650L1034.5,38.3L419.2,293.9l609.1-1.5
			C1074.9,291.2,1122,292.3,1168.5,295.7z"/>
		<path class="st1" d="M185.3,524.7c-0.2-27.4,0.6-56.4,2.7-86.9c1.2-17.1,2.7-33.7,4.5-49.7c8.3-3.4,16.6-6.7,24.9-10.1
			c-0.1-13.6-0.2-27.1-0.4-40.7c-33.1,14.3-47.5,20.5-48.5,20.9c0,0-0.2,0.1-0.5,0.2c-0.6,0.3-1.6,0.7-2.7,1.5
			c-1.7,1.1-3.1,2.5-4.3,4c0,0-2.7,3.5-3.7,8.7c-1.1,6.2-5.4,67.9-10.5,152.3C159.8,524.9,172.5,524.8,185.3,524.7z"/>
		<path class="st1" d="M1427.5,1745.5c-47.7,45.3-107.7,95.8-181.3,144.8c-80.8,53.8-157.3,92.1-222.1,119.5
			c-56.6-22.1-126.9-55.4-201.3-105.9c-71.3-48.4-126.3-99-167-142c-0.7,17.2-1.5,34.5-2.2,51.7c23.4,21.9,49.1,44.4,77.1,67.1
			c23.3,18.8,46,36,68.1,51.7c0,0,127.3,85.6,211.1,112.1c4.1,1.3,6.5,1.9,7,2.2c1.5,0.6,3.1,1,3.1,1c1.3,0.3,2.7,0.4,4,0.4
			c2.4,0,4.9-0.5,7.1-1.4c134-56.4,227.1-120.1,227.1-120.1c52.7-36.1,119.3-85.6,192.5-150.8
			C1443.1,1765.7,1435.3,1755.6,1427.5,1745.5z"/>
		<path class="st1" d="M235.1,1038C209.8,930.7,196,809.8,196,809.8c-4.2-33.4-7.5-69.4-9.3-107.5c-1.5-31.3-1.9-61.1-1.4-89.2
			c-12.5,0.4-25.1,0.7-37.6,1.1c-0.2,178.9,25.6,326,51.4,431.1c28.6,116.9,84.7,332.1,246.8,555.1c37.4,51.5,78.4,99.7,122.5,144.8
			l0.1-54.5C377.9,1482.8,282.5,1239.5,235.1,1038z"/>
		<path class="st1" d="M1890.9,372.7c-0.9-6.4-5.1-11.8-11-14.3L1041.7,1.5c-4.5-1.9-9.7-2-14.2-0.1
			c-234.7,97.5-469.4,194.9-704,292.4c32.2-0.3,64.4-0.6,96.6-0.9C624.9,208,829.7,123.2,1034.5,38.3L1855.7,388
			c8.6,124.8,18.7,390.8-42.5,650c-26.8,113.7-62.7,206.4-67.4,218.4c-11.7,29.9-60.6,152.2-135.4,265.6
			c-34.1,51.7-73.2,101-76.1,104.7c-17.5,22-33.1,40.3-45.2,54.1c8,10.4,16,20.8,24.1,31.2c44.7-54.3,73.2-90.2,89.2-111.6
			c0,0,0,0,0,0c0.3-0.5,18.7-24.4,35.1-48c53.5-77.2,148.2-236.6,211.7-507.1C1933.5,686.3,1891.3,375.8,1890.9,372.7z"/>
	</g>
	<g>
		<g>
			<path class="st1" d="M1187,1177.8c-10.1,0-18.4-8.2-18.4-18.4c0-10.1,8.2-18.4,18.4-18.4l110,0c27.2-3.8,53.9-11,79.3-21.5
				c0.4-0.1,36.2-15.1,69.3-39.1c5.5-4,55.2-41,100.9-105.6c49.4-69.9,73.5-142.4,71.7-215.5c-3.4-138.6-75.4-267-187.8-335.2
				c-38.6-23.4-81.7-39.5-127.8-47.6c-45.7-8.1-92.4-13.9-138.8-17.3c-44.5-3.2-89.8-4.3-134.4-3.1c-0.1,0-0.3,0-0.4,0L264,358
				c0,0,0,0,0,0c-10.1,0-18.3-8.2-18.4-18.3c0-10.1,8.2-18.4,18.3-18.4l764.8-1.9c45.8-1.2,92.2-0.1,137.8,3.2
				c47.6,3.5,95.5,9.4,142.5,17.7c50.7,9,97.9,26.6,140.5,52.4c123,74.6,201.8,214.7,205.5,365.7c5.2,209.3-179.9,346.1-187.8,351.8
				c-36.8,26.7-75.3,42.7-76.9,43.4c-28.6,11.8-58.8,19.9-89.5,24.1c-0.8,0.1-1.6,0.2-2.5,0.2L1187,1177.8
				C1187,1177.8,1187,1177.8,1187,1177.8z"/>
		</g>
		<g>
			<path class="st1" d="M613.6,1782.7C613.6,1782.7,613.6,1782.7,613.6,1782.7c-10.2,0-18.4-8.2-18.4-18.4l0.9-604.9
				c0-10.1,8.2-18.3,18.4-18.3c0,0,0,0,0,0l243.8,0.3c10.1,0,18.4,8.2,18.3,18.4c0,10.1-8.2,18.3-18.4,18.3c0,0,0,0,0,0l-225.4-0.2
				l-0.9,586.6C632,1774.5,623.7,1782.7,613.6,1782.7z"/>
		</g>
		<g>
			<path class="st1" d="M1469.4,1748.3c-5.5,0-10.9-2.5-14.5-7.1L839.2,943.3c-4.4-5.7-5.1-13.3-1.8-19.7c3.3-6.3,9.9-10.2,17.1-9.9
				l273.3,11.2l93.8-0.4c21-1,91.3-8.7,136.3-67.4c27.9-36.4,33.7-71.8,33.7-95.1c0-48.4-23.9-81.4-34-95.5
				c-42.7-59.1-108.9-75.7-136.9-80.2c-31.2,0.1-62.3,0.2-93.5,0.3c-149.6,0.4-261.1,0.3-303.1,0.3l-1.2,0
				c-198.7-0.1-626.3-0.3-658.3-0.3c-10.1,0-18.4-8.2-18.4-18.4c0-10.1,8.2-18.4,18.4-18.4c0,0,0,0,0,0c32,0,459.6,0.2,658.3,0.3
				l1.2,0c42,0,153.4,0.1,303-0.3c31.6-0.1,63.3-0.2,94.9-0.3c1,0,1.9,0.1,2.8,0.2c31.7,4.8,111,23.8,162.5,95.2
				c11.2,15.5,40.9,56.7,41,117c0,29-7.1,72.9-41.3,117.4c-54.9,71.7-139.6,80.7-164.2,81.8c-0.2,0-0.5,0-0.7,0l-94.6,0.4
				c-0.3,0-0.6,0-0.8,0l-234.4-9.6l591.6,766.7c6.2,8,4.7,19.6-3.3,25.8C1477.3,1747.1,1473.3,1748.3,1469.4,1748.3z"/>
		</g>
	</g>
</g>
</svg>
